HIERARCHY
ROOT hip
{
	OFFSET 0.000000 0.000000 0.000000 
	CHANNELS 6 Xposition Yposition Zposition Xrotation Zrotation Yrotation
	JOINT abdomen
	{
		OFFSET 0.000000 3.402643 0.000000 
		CHANNELS 3 Xrotation Zrotation Yrotation
		JOINT chest
		{
			OFFSET 0.000000 8.438565 -0.680529 
			CHANNELS 3 Xrotation Zrotation Yrotation
			JOINT neck
			{
				OFFSET 0.000000 10.207942 -0.272212 
				CHANNELS 3 Xrotation Zrotation Yrotation
				JOINT head
				{
					OFFSET 0.000000 3.130431 0.000000 
					CHANNELS 3 Xrotation Zrotation Yrotation
					End Site
					{
						OFFSET 0.000000 3.130435 0.000000 
					}
				}
			}
			JOINT lCollar
			{
				OFFSET 3.470700 6.669187 -0.816635 
				CHANNELS 3 Yrotation Zrotation Xrotation
				JOINT lShldr
				{
					OFFSET 3.198488 0.000000 0.000000 
					CHANNELS 3 Zrotation Yrotation Xrotation
					JOINT lForeArm
					{
						OFFSET 10.139888 0.000000 0.000000 
						CHANNELS 3 Yrotation Zrotation Xrotation
						JOINT lHand
						{
							OFFSET 8.370511 0.000000 0.000000 
							CHANNELS 3 Zrotation Yrotation Xrotation
							End Site
							{
								OFFSET 4.083176 0.000000 0.000000 
							}
						}
					}
				}
			}
			JOINT rCollar
			{
				OFFSET -3.470700 6.669187 -0.816635 
				CHANNELS 3 Yrotation Zrotation Xrotation
				JOINT rShldr
				{
					OFFSET -3.198488 0.000000 0.000000 
					CHANNELS 3 Zrotation Yrotation Xrotation
					JOINT rForeArm
					{
						OFFSET -10.139888 0.000000 0.000000 
						CHANNELS 3 Yrotation Zrotation Xrotation
						JOINT rHand
						{
							OFFSET -8.370511 0.000000 0.000000 
							CHANNELS 3 Zrotation Yrotation Xrotation
							End Site
							{
								OFFSET -4.083176 0.000000 0.000000 
							}
						}
					}
				}
			}
		}
	}
	JOINT lThigh
	{
		OFFSET 5.308129 -1.633274 1.361059 
		CHANNELS 3 Xrotation Zrotation Yrotation
		JOINT lShin
		{
			OFFSET -2.041588 -20.007561 0.000000 
			CHANNELS 3 Xrotation Zrotation Yrotation
			JOINT lFoot
			{
				OFFSET 0.000000 -19.190928 -1.224953 
				CHANNELS 3 Xrotation Yrotation Zrotation
				End Site
				{
					OFFSET 0.000000 -2.449906 4.627600 
				}
			}
		}
	}
	JOINT rThigh
	{
		OFFSET -5.308129 -1.633274 1.361059 
		CHANNELS 3 Xrotation Zrotation Yrotation
		JOINT rShin
		{
			OFFSET 2.041588 -20.007561 0.000000 
			CHANNELS 3 Xrotation Zrotation Yrotation
			JOINT rFoot
			{
				OFFSET 0.000000 -19.190928 -1.224953 
				CHANNELS 3 Xrotation Yrotation Zrotation
				End Site
				{
					OFFSET 0.000000 -2.449906 4.627600 
				}
			}
		}
	}
}
MOTION
Frames: 6
Frame Time: 0.033333
-1.186616 35.232117 73.226540 -2.988281 0.878906 125.859528 12.470703 1.005859 8.896485 -17.294922 4.560547 9.366011 15.312499 -6.220703 9.570313 21.230469 -13.837891 13.232423 19.726561 15.146484 0.703125 -31.640623 15.322266 -46.325546 -93.886719 -3.271484 -45.703129 -50.224617 -117.167976 48.408207 -13.378906 -24.297701 1.165876 8.056640 16.728516 -63.242184 85.000000 3.535156 -51.328121 -0.380859 1.738281 -0.156250 -47.432816 44.777950 -0.068765 36.294487 -1.095692 -2.632481 11.552616 -5.487856 -6.344466 10.132916 -27.388159 -16.771959 48.264717 -0.122121 2.904803 -26.033270 -20.475754 -3.095368 
-1.187101 35.202671 74.938988 -0.878906 2.460938 127.080078 13.457031 2.568359 8.134766 -16.416016 5.429688 8.340768 15.839844 -6.220703 9.569255 22.304688 -14.882813 13.200616 18.681641 13.691407 0.585937 -34.472656 14.775392 -47.087357 -98.398438 -3.271485 -41.454517 -48.691402 -117.119141 46.866306 -10.800780 -21.269529 1.058229 12.509766 16.708986 -62.070313 93.105469 3.671875 -52.891254 0.849609 0.507812 -0.087891 -47.411869 43.525177 0.456025 41.220634 -0.754601 -2.770988 9.445622 -9.306206 -5.745237 9.636983 -27.615299 -18.327391 54.400276 -0.376321 3.073091 -28.140333 -20.086155 -3.921119 
-1.182011 35.446972 76.177345 1.572266 3.857422 127.608086 14.082031 4.013672 7.715528 -16.054688 5.957299 7.471307 16.367188 -6.044921 9.560547 23.193359 -15.937500 13.183594 17.685547 13.232422 0.622765 -37.138672 14.267579 -46.523438 -102.089844 -3.183594 -40.282658 -42.636715 -115.869148 41.153328 -7.548829 -17.041018 0.693359 17.812500 14.833986 -57.167969 100.478516 3.642578 -53.281864 2.431640 0.859375 0.009766 -44.427734 42.123543 1.793902 44.016972 -0.588889 -3.023643 6.674503 -10.175217 -5.956405 9.090121 -27.419550 -17.841227 58.452637 -0.825512 2.835938 -29.037716 -21.099295 -4.624909 
-1.203582 35.874504 77.017853 4.384766 4.746094 126.748856 14.492188 5.292969 7.793870 -16.054688 6.133088 7.119788 16.376955 -6.015625 9.911086 23.730467 -16.816406 13.466797 17.001955 13.505859 0.515298 -41.542969 13.935548 -46.289063 -105.322258 -3.066406 -37.655731 -40.371101 -115.390625 38.994144 -4.335938 -12.832032 0.595703 21.865234 11.884767 -51.562500 105.957031 3.720703 -54.365868 3.134765 2.441406 0.048828 -38.841610 40.217983 4.074290 43.500114 -0.588705 -2.988426 4.367704 -7.883212 -6.714374 9.080703 -28.074448 -16.326279 60.010979 -0.825239 3.236427 -29.747471 -21.923454 -5.390549 
-1.279684 36.313305 77.574341 7.197265 4.746094 124.794922 14.687502 5.957031 8.018592 -15.878907 6.132812 7.304688 15.527342 -6.142578 10.625001 24.091797 -17.333984 13.984376 16.679688 13.115233 0.537109 -47.236332 13.955078 -47.207031 -108.447266 -3.134766 -34.120560 -43.369144 -115.449211 41.972656 -2.714844 -9.267651 0.431253 24.755859 9.472655 -47.158199 109.580078 3.623047 -53.799446 3.310547 3.837891 0.235029 -33.032722 37.923645 6.727624 41.376339 -0.585261 -3.048343 5.049448 -3.773166 -6.796886 8.397045 -29.696314 -13.556273 60.722950 -0.825222 3.274693 -30.123264 -22.270924 -5.962027 
-1.418680 36.663403 77.926964 10.019531 4.042969 122.354202 14.843750 6.005859 8.408203 -15.175782 6.123047 7.675643 13.457031 -6.250000 11.689453 24.091797 -17.509768 14.511719 16.767578 11.669922 0.593728 -52.871094 14.892579 -49.492188 -111.982422 -2.968750 -30.770975 -47.734386 -116.298836 46.054688 -2.070312 -7.138671 0.274651 26.035156 7.841796 -43.777966 112.246094 3.740235 -53.388672 3.320313 5.244141 0.234375 -27.792681 35.673267 10.610362 39.991062 -1.086399 -2.658459 6.989967 -0.260818 -7.235741 6.609948 -32.077400 -9.752444 61.430660 -1.001321 3.019655 -30.209753 -22.841322 -6.153116 
